<mxfile host="app.diagrams.net" modified="2023-12-26T12:29:15.246Z" agent="Mozilla/5.0 (Macintosh; Intel Mac OS X 10.15; rv:121.0) Gecko/20100101 Firefox/121.0" etag="ImRp-BxmA1ZysxV2xqOg" version="22.1.11" type="device">
  <diagram name="Page-1" id="T_lZdNIDErgg7jXjjbQq">
    <mxGraphModel dx="710" dy="406" grid="1" gridSize="10" guides="1" tooltips="1" connect="1" arrows="1" fold="1" page="1" pageScale="1" pageWidth="850" pageHeight="1100" math="0" shadow="0">
      <root>
        <mxCell id="0" />
        <mxCell id="1" parent="0" />
        <mxCell id="J50L2D8Asl_RP4Ov8Aft-4" value="PHP Service" style="outlineConnect=0;dashed=0;verticalLabelPosition=bottom;verticalAlign=top;align=center;html=1;shape=mxgraph.aws3.ec2;fillColor=#F58534;gradientColor=none;" parent="1" vertex="1">
          <mxGeometry x="230" y="120" width="76.5" height="93" as="geometry" />
        </mxCell>
        <mxCell id="J50L2D8Asl_RP4Ov8Aft-17" style="edgeStyle=orthogonalEdgeStyle;rounded=0;orthogonalLoop=1;jettySize=auto;html=1;entryX=1;entryY=0.5;entryDx=0;entryDy=0;entryPerimeter=0;" parent="1" source="_aJ2u7DRDeXIayx9k2m1-1" target="J50L2D8Asl_RP4Ov8Aft-4" edge="1">
          <mxGeometry relative="1" as="geometry">
            <mxPoint x="460" y="160" as="targetPoint" />
          </mxGeometry>
        </mxCell>
        <mxCell id="J50L2D8Asl_RP4Ov8Aft-29" value="Consumption" style="edgeLabel;html=1;align=center;verticalAlign=middle;resizable=0;points=[];" parent="J50L2D8Asl_RP4Ov8Aft-17" vertex="1" connectable="0">
          <mxGeometry x="-0.075" y="1" relative="1" as="geometry">
            <mxPoint x="-42" y="13" as="offset" />
          </mxGeometry>
        </mxCell>
        <mxCell id="J50L2D8Asl_RP4Ov8Aft-14" value="Aggregator" style="outlineConnect=0;dashed=0;verticalLabelPosition=bottom;verticalAlign=top;align=center;html=1;shape=mxgraph.aws3.ec2;fillColor=#F58534;gradientColor=none;" parent="1" vertex="1">
          <mxGeometry x="660" y="140.5" width="50" height="50" as="geometry" />
        </mxCell>
        <mxCell id="_aJ2u7DRDeXIayx9k2m1-1" value="" style="outlineConnect=0;dashed=0;verticalLabelPosition=bottom;verticalAlign=top;align=center;html=1;shape=mxgraph.aws3.queue;fillColor=#D9A741;gradientColor=none;rotation=-180;" vertex="1" parent="1">
          <mxGeometry x="460" y="142.5" width="73.5" height="48" as="geometry" />
        </mxCell>
        <mxCell id="_aJ2u7DRDeXIayx9k2m1-3" style="edgeStyle=orthogonalEdgeStyle;rounded=0;orthogonalLoop=1;jettySize=auto;html=1;entryX=0;entryY=0.5;entryDx=0;entryDy=0;entryPerimeter=0;" edge="1" parent="1" source="J50L2D8Asl_RP4Ov8Aft-14" target="_aJ2u7DRDeXIayx9k2m1-1">
          <mxGeometry relative="1" as="geometry" />
        </mxCell>
        <mxCell id="_aJ2u7DRDeXIayx9k2m1-4" value="Production" style="edgeLabel;html=1;align=center;verticalAlign=middle;resizable=0;points=[];" vertex="1" connectable="0" parent="_aJ2u7DRDeXIayx9k2m1-3">
          <mxGeometry x="0.0766" relative="1" as="geometry">
            <mxPoint x="38" y="14" as="offset" />
          </mxGeometry>
        </mxCell>
        <mxCell id="_aJ2u7DRDeXIayx9k2m1-7" value="Distributed FIFO Queue" style="text;html=1;strokeColor=none;fillColor=none;align=center;verticalAlign=middle;whiteSpace=wrap;rounded=0;" vertex="1" parent="1">
          <mxGeometry x="466.75" y="260" width="60" height="30" as="geometry" />
        </mxCell>
        <mxCell id="_aJ2u7DRDeXIayx9k2m1-13" style="edgeStyle=orthogonalEdgeStyle;rounded=0;orthogonalLoop=1;jettySize=auto;html=1;" edge="1" parent="1" source="_aJ2u7DRDeXIayx9k2m1-8" target="J50L2D8Asl_RP4Ov8Aft-4">
          <mxGeometry relative="1" as="geometry" />
        </mxCell>
        <mxCell id="_aJ2u7DRDeXIayx9k2m1-15" style="edgeStyle=orthogonalEdgeStyle;rounded=0;orthogonalLoop=1;jettySize=auto;html=1;" edge="1" parent="1" source="_aJ2u7DRDeXIayx9k2m1-8" target="_aJ2u7DRDeXIayx9k2m1-8">
          <mxGeometry relative="1" as="geometry">
            <mxPoint x="470" y="70" as="targetPoint" />
            <Array as="points">
              <mxPoint x="440" y="104" />
              <mxPoint x="440" y="60" />
              <mxPoint x="497" y="60" />
            </Array>
          </mxGeometry>
        </mxCell>
        <mxCell id="_aJ2u7DRDeXIayx9k2m1-8" value="" style="outlineConnect=0;dashed=0;verticalLabelPosition=bottom;verticalAlign=top;align=center;html=1;shape=mxgraph.aws3.queue;fillColor=#D9A741;gradientColor=none;rotation=-180;" vertex="1" parent="1">
          <mxGeometry x="460" y="80" width="73.5" height="48" as="geometry" />
        </mxCell>
        <mxCell id="_aJ2u7DRDeXIayx9k2m1-14" value="" style="edgeStyle=orthogonalEdgeStyle;rounded=0;orthogonalLoop=1;jettySize=auto;html=1;" edge="1" parent="1" source="_aJ2u7DRDeXIayx9k2m1-9" target="J50L2D8Asl_RP4Ov8Aft-4">
          <mxGeometry relative="1" as="geometry" />
        </mxCell>
        <mxCell id="_aJ2u7DRDeXIayx9k2m1-9" value="" style="outlineConnect=0;dashed=0;verticalLabelPosition=bottom;verticalAlign=top;align=center;html=1;shape=mxgraph.aws3.queue;fillColor=#D9A741;gradientColor=none;rotation=-180;" vertex="1" parent="1">
          <mxGeometry x="460" y="200" width="73.5" height="48" as="geometry" />
        </mxCell>
        <mxCell id="_aJ2u7DRDeXIayx9k2m1-11" style="edgeStyle=orthogonalEdgeStyle;rounded=0;orthogonalLoop=1;jettySize=auto;html=1;entryX=0;entryY=0.5;entryDx=0;entryDy=0;entryPerimeter=0;" edge="1" parent="1" source="J50L2D8Asl_RP4Ov8Aft-14" target="_aJ2u7DRDeXIayx9k2m1-8">
          <mxGeometry relative="1" as="geometry" />
        </mxCell>
        <mxCell id="_aJ2u7DRDeXIayx9k2m1-12" style="edgeStyle=orthogonalEdgeStyle;rounded=0;orthogonalLoop=1;jettySize=auto;html=1;entryX=0;entryY=0.5;entryDx=0;entryDy=0;entryPerimeter=0;" edge="1" parent="1" source="J50L2D8Asl_RP4Ov8Aft-14" target="_aJ2u7DRDeXIayx9k2m1-9">
          <mxGeometry relative="1" as="geometry" />
        </mxCell>
        <mxCell id="_aJ2u7DRDeXIayx9k2m1-16" value="Retry (Push to front of queue)" style="text;html=1;align=center;verticalAlign=middle;resizable=0;points=[];autosize=1;strokeColor=none;fillColor=none;" vertex="1" parent="1">
          <mxGeometry x="380" y="30" width="180" height="30" as="geometry" />
        </mxCell>
        <mxCell id="_aJ2u7DRDeXIayx9k2m1-20" value="groupid1" style="text;html=1;align=center;verticalAlign=middle;resizable=0;points=[];autosize=1;strokeColor=none;fillColor=none;" vertex="1" parent="1">
          <mxGeometry x="533.5" y="80" width="70" height="30" as="geometry" />
        </mxCell>
        <mxCell id="_aJ2u7DRDeXIayx9k2m1-21" value="groupid2" style="text;html=1;align=center;verticalAlign=middle;resizable=0;points=[];autosize=1;strokeColor=none;fillColor=none;" vertex="1" parent="1">
          <mxGeometry x="534.5" y="140.5" width="70" height="30" as="geometry" />
        </mxCell>
        <mxCell id="_aJ2u7DRDeXIayx9k2m1-22" value="groupid3" style="text;html=1;align=center;verticalAlign=middle;resizable=0;points=[];autosize=1;strokeColor=none;fillColor=none;" vertex="1" parent="1">
          <mxGeometry x="532.5" y="200" width="70" height="30" as="geometry" />
        </mxCell>
      </root>
    </mxGraphModel>
  </diagram>
</mxfile>
